<svg width="24" height="86" viewBox="0 0 24 86" fill="none" xmlns="http://www.w3.org/2000/svg">
<path fill-rule="evenodd" clip-rule="evenodd" d="M11.0773 21.85C11.0773 21.85 11.0773 21.85 11.5 21.2857L11.0773 21.85C11.3227 22.05 11.6773 22.05 11.9227 21.85L11.5 21.2857C11.9227 21.85 11.9227 21.85 11.9227 21.85V21.8428H11.9295L11.9432 21.8286C11.9637 21.8143 11.9841 21.8 12.0045 21.7714C12.0591 21.7286 12.1341 21.6643 12.2363 21.5786C12.4272 21.4071 12.7 21.1571 13.0273 20.8357C13.6818 20.2 14.5614 19.2857 15.4341 18.1714C17.1659 15.9857 19 12.9071 19 9.63566C19 5.39995 15.625 2 11.5 2C7.375 2 4 5.39995 4 9.63566C4 12.9071 5.83408 15.9857 7.5659 18.1714C8.43862 19.2857 9.31819 20.2 9.97273 20.8357C10.3 21.1571 10.5728 21.4071 10.7637 21.5786C10.8659 21.6643 10.9409 21.7286 10.9955 21.7714C11.0159 21.8 11.0363 21.8143 11.0568 21.8286L11.0705 21.8428H11.0773V21.85ZM5.36364 9.63566C5.36364 6.22852 8.09091 3.42857 11.5 3.42857C14.9091 3.42857 17.6364 6.22852 17.6364 9.63566C17.6364 12.3857 16.0614 15.1357 14.3841 17.2643C13.5523 18.3143 12.7273 19.1857 12.1 19.7857C11.8682 20.0143 11.6636 20.2071 11.5 20.3571C11.3364 20.2071 11.1318 20.0143 10.9 19.7857C10.2727 19.1857 9.44774 18.3143 8.61592 17.2643C6.93865 15.1357 5.36364 12.3857 5.36364 9.63566Z" fill="#026ED2"/>
<path fill-rule="evenodd" clip-rule="evenodd" d="M11.5003 6.28516C9.61846 6.28516 8.09119 7.88515 8.09119 9.85658C8.09119 11.828 9.61846 13.428 11.5003 13.428C13.3821 13.428 14.9094 11.828 14.9094 9.85658C14.9094 7.88515 13.3821 6.28516 11.5003 6.28516ZM9.45482 9.85658C9.45482 8.67087 10.3685 7.71373 11.5003 7.71373C12.6321 7.71373 13.5457 8.67087 13.5457 9.85658C13.5457 11.0423 12.6321 11.9994 11.5003 11.9994C10.3685 11.9994 9.45482 11.0423 9.45482 9.85658Z" fill="#026ED2"/>
<path d="M12 28L12 58" stroke="#026ED2" stroke-width="2" stroke-linecap="square" stroke-dasharray="4 4"/>
<path fill-rule="evenodd" clip-rule="evenodd" d="M11.0773 83.85C11.0773 83.85 11.0773 83.85 11.5 83.2857L11.0773 83.85C11.3227 84.05 11.6773 84.05 11.9227 83.85L11.5 83.2857C11.9227 83.85 11.9227 83.85 11.9227 83.85V83.8428H11.9295L11.9432 83.8286C11.9637 83.8143 11.9841 83.8 12.0045 83.7714C12.0591 83.7286 12.1341 83.6643 12.2363 83.5786C12.4272 83.4071 12.7 83.1571 13.0273 82.8357C13.6818 82.2 14.5614 81.2857 15.4341 80.1714C17.1659 77.9857 19 74.9071 19 71.6357C19 67.4 15.625 64 11.5 64C7.375 64 4 67.4 4 71.6357C4 74.9071 5.83408 77.9857 7.5659 80.1714C8.43862 81.2857 9.31819 82.2 9.97273 82.8357C10.3 83.1571 10.5728 83.4071 10.7637 83.5786C10.8659 83.6643 10.9409 83.7286 10.9955 83.7714C11.0159 83.8 11.0363 83.8143 11.0568 83.8286L11.0705 83.8428H11.0773V83.85ZM5.36364 71.6357C5.36364 68.2285 8.09091 65.4286 11.5 65.4286C14.9091 65.4286 17.6364 68.2285 17.6364 71.6357C17.6364 74.3857 16.0614 77.1357 14.3841 79.2643C13.5523 80.3143 12.7273 81.1857 12.1 81.7857C11.8682 82.0143 11.6636 82.2071 11.5 82.3571C11.3364 82.2071 11.1318 82.0143 10.9 81.7857C10.2727 81.1857 9.44774 80.3143 8.61592 79.2643C6.93865 77.1357 5.36364 74.3857 5.36364 71.6357Z" fill="#026ED2"/>
<path fill-rule="evenodd" clip-rule="evenodd" d="M11.5003 68.2852C9.61846 68.2852 8.09119 69.8852 8.09119 71.8566C8.09119 73.828 9.61846 75.428 11.5003 75.428C13.3821 75.428 14.9094 73.828 14.9094 71.8566C14.9094 69.8852 13.3821 68.2852 11.5003 68.2852ZM9.45482 71.8566C9.45482 70.6709 10.3685 69.7137 11.5003 69.7137C12.6321 69.7137 13.5457 70.6709 13.5457 71.8566C13.5457 73.0423 12.6321 73.9994 11.5003 73.9994C10.3685 73.9994 9.45482 73.0423 9.45482 71.8566Z" fill="#026ED2"/>
</svg>
